<svg width="472" height="343" viewBox="0 0 472 343" fill="none" xmlns="http://www.w3.org/2000/svg">
<path d="M334 43C299.4 43.0001 274.125 78.2764 242.5 89.3455C210.393 100.583 169.418 85.2943 139.5 99.8106C111.562 113.366 116.039 136.92 91 153.631C66.8067 169.778 47.9564 164.209 29.5 184.528C9.36452 206.696 -3.74176 218.039 1.11078 245.037C5.36179 268.689 7.23187 294.084 33.7623 305.612C88.311 329.315 106.052 311.62 162.53 317.903C225.318 324.887 304.057 362.942 363.652 329.315C394.12 312.124 378.275 281.664 405.213 261.132C419.894 249.941 435.735 250.84 449 238.599C469.189 219.968 475.994 202.035 469.78 178.023C458.648 135.006 458.658 122.19 414.5 78.8804C382.318 47.3171 383 42.9999 334 43Z" fill="#81A1C1" fill-opacity="0.12"/>
<path d="M191.14 49.1971C173.359 79.994 186.131 127.793 167.899 117.267C149.667 106.741 137.78 86.9223 155.561 56.1254C173.341 25.3285 205.042 10.8291 223.274 21.3552C241.505 31.8813 208.92 18.4002 191.14 49.1971Z" fill="white"/>
<path d="M208.667 79.5196C219.906 98.985 250.106 107.1 238.583 113.753C227.059 120.406 212.454 120.65 201.216 101.184C189.977 81.7188 192.059 59.7843 203.583 53.1312C215.106 46.4781 197.429 60.0542 208.667 79.5196Z" fill="white"/>
<path d="M198.929 123.636C208.069 132.777 226.055 132.79 220.643 138.201C215.232 143.613 205.965 145.874 196.824 136.733C187.684 127.593 186.764 115.145 192.176 109.733C197.587 104.322 189.788 114.495 198.929 123.636Z" fill="white"/>
<rect width="5.99998" height="153" rx="2.99999" transform="matrix(-4.37114e-08 1 1 1.23925e-07 99 176)" fill="#4C566A"/>
<rect width="5.99999" height="48" rx="3" transform="matrix(-4.37114e-08 1 1 1.23925e-07 75 194)" fill="#C58974"/>
<rect width="5.99999" height="48" rx="3" transform="matrix(-4.37114e-08 1 1 1.23925e-07 185 212)" fill="#ECEFF3"/>
<rect width="5.99999" height="48" rx="3" transform="matrix(-4.37114e-08 1 1 1.23925e-07 99 230)" fill="#D9DEE8"/>
<rect width="5.99999" height="48" rx="3" transform="matrix(-4.37114e-08 1 1 1.23925e-07 99 248)" fill="#86A0BE"/>
<rect width="5.99999" height="48" rx="3" transform="matrix(-4.37114e-08 1 1 1.23925e-07 169 266)" fill="#93BECE"/>
<rect width="5.99999" height="48" rx="3" transform="matrix(-4.37114e-08 1 1 1.23925e-07 157 248)" fill="#D9DEE8"/>
<rect width="5.99999" height="48" rx="3" transform="matrix(-4.37114e-08 1 1 1.23925e-07 215 248)" fill="#A8BC91"/>
<rect width="5.99999" height="48" rx="3" transform="matrix(-4.37114e-08 1 1 1.23925e-07 203 230)" fill="#D9DEE8"/>
<rect width="5.99999" height="36" rx="3" transform="matrix(-4.37114e-08 1 1 1.23925e-07 157 230)" fill="#93BECE"/>
<rect width="5.99999" height="36" rx="3" transform="matrix(-4.37114e-08 1 1 1.23925e-07 123 266)" fill="#86A0BE"/>
<rect width="5.99999" height="36" rx="3" transform="matrix(-4.37114e-08 1 1 1.23925e-07 273 248)" fill="#A8BC91"/>
<rect width="5.99999" height="36" rx="3" transform="matrix(-4.37114e-08 1 1 1.23925e-07 261 230)" fill="#81A1C1"/>
<rect width="5.99999" height="48" rx="3" transform="matrix(-4.37114e-08 1 1 1.23925e-07 243 194)" fill="#D9DEE8"/>
<rect width="5.99999" height="100" rx="2.99999" transform="matrix(-4.37114e-08 1 1 1.23925e-07 133 194)" fill="#ECEFF3"/>
<rect width="5.99999" height="100" rx="2.99999" transform="matrix(-4.37114e-08 1 1 1.23925e-07 75 212)" fill="#86A0BE"/>
<rect width="5.99999" height="120" rx="2.99999" transform="matrix(-4.37114e-08 1 1 1.23925e-07 75 284)" fill="#98BBBA"/>
<rect width="5.99999" height="90" rx="2.99999" transform="matrix(-4.37114e-08 1 1 1.23925e-07 205 284)" fill="#81A1C1"/>
<path fill-rule="evenodd" clip-rule="evenodd" d="M225.312 57.5548C225.312 57.5548 236.125 68.7987 242.285 76.6452C249.855 86.2891 253.937 94.853 258.089 103.565C261.813 111.378 265.594 119.311 271.999 128.248C283.081 143.711 292.511 152.958 303.471 163.704C309.06 169.185 315.047 175.055 321.853 182.339C323.491 184.091 325.365 186.154 327.429 188.427C337.855 199.904 353.135 216.726 367.374 225.914C376.868 232.04 388.221 228.401 388.221 228.401L406.932 209.69L407.018 209.604L425.728 190.894C425.728 190.894 429.367 179.54 423.241 170.046C414.053 155.808 397.231 140.527 385.754 130.101C383.482 128.037 381.419 126.163 379.666 124.526C372.382 117.719 366.512 111.732 361.032 106.143C350.286 95.1837 341.039 85.7535 325.576 74.6715C316.638 68.2664 308.706 64.4857 300.892 60.7617C292.18 56.6095 283.616 52.5278 273.973 44.9572C266.126 38.7976 254.882 27.9851 254.882 27.9851L240.14 42.727L240.054 42.8129L225.312 57.5548Z" fill="#ECEFF4"/>
<path d="M242.285 76.6452L243.858 75.4102L242.285 76.6452ZM225.312 57.5548L223.898 56.1406C223.128 56.9109 223.116 58.1559 223.871 58.9411L225.312 57.5548ZM258.089 103.565L259.895 102.705L258.089 103.565ZM271.999 128.248L273.625 127.083L271.999 128.248ZM303.471 163.704L302.07 165.132L303.471 163.704ZM321.853 182.339L320.392 183.704L321.853 182.339ZM327.429 188.427L325.948 189.771L327.429 188.427ZM367.374 225.914L366.289 227.594L367.374 225.914ZM388.221 228.401L388.832 230.305C389.135 230.208 389.41 230.04 389.635 229.815L388.221 228.401ZM425.728 190.894L427.142 192.308C427.367 192.083 427.535 191.807 427.633 191.504L425.728 190.894ZM423.241 170.046L424.921 168.962L423.241 170.046ZM385.754 130.101L387.099 128.621L385.754 130.101ZM379.666 124.526L381.032 123.064L379.666 124.526ZM361.032 106.143L359.604 107.543L361.032 106.143ZM325.576 74.6715L324.411 76.2971L325.576 74.6715ZM300.892 60.7617L301.753 58.9563L300.892 60.7617ZM273.973 44.9572L272.738 46.5304L272.738 46.5304L273.973 44.9572ZM254.882 27.9851L256.269 26.5435C255.483 25.7884 254.238 25.8006 253.468 26.5709L254.882 27.9851ZM243.858 75.4102C240.729 71.4242 236.443 66.6054 232.964 62.8067C231.219 60.902 229.668 59.244 228.553 58.0619C227.995 57.4708 227.547 56.9984 227.237 56.6733C227.082 56.5108 226.962 56.385 226.88 56.2997C226.839 56.2571 226.808 56.2245 226.787 56.2025C226.776 56.1915 226.768 56.1831 226.763 56.1774C226.76 56.1746 226.758 56.1724 226.756 56.1709C226.756 56.1702 226.755 56.1696 226.755 56.1692C226.755 56.169 226.754 56.1688 226.754 56.1687C226.754 56.1686 226.754 56.1685 225.312 57.5548C223.871 58.9411 223.871 58.9411 223.871 58.9411C223.871 58.9412 223.871 58.9413 223.871 58.9414C223.871 58.9417 223.872 58.9422 223.873 58.9428C223.874 58.944 223.876 58.946 223.878 58.9486C223.883 58.9537 223.891 58.9616 223.901 58.9721C223.921 58.9931 223.951 59.0247 223.991 59.0663C224.071 59.1495 224.189 59.273 224.341 59.4332C224.647 59.7537 225.091 60.221 225.643 60.8066C226.748 61.9779 228.285 63.6213 230.014 65.5084C233.481 69.2933 237.681 74.0196 240.711 77.8801L243.858 75.4102ZM259.895 102.705C255.74 93.9884 251.578 85.2449 243.858 75.4102L240.711 77.8801C248.132 87.3334 252.133 95.7177 256.284 104.426L259.895 102.705ZM273.625 127.083C267.333 118.305 263.618 110.517 259.895 102.705L256.284 104.426C260.008 112.24 263.854 120.317 270.373 129.413L273.625 127.083ZM304.871 162.276C293.92 151.539 284.598 142.395 273.625 127.083L270.373 129.413C281.564 145.028 291.102 154.378 302.07 165.132L304.871 162.276ZM323.314 180.973C316.475 173.654 310.459 167.756 304.871 162.276L302.07 165.132C307.66 170.613 313.618 176.456 320.392 183.704L323.314 180.973ZM328.909 187.082C326.848 184.813 324.964 182.738 323.314 180.973L320.392 183.704C322.018 185.444 323.881 187.496 325.948 189.771L328.909 187.082ZM368.458 224.233C354.486 215.217 339.389 198.619 328.909 187.082L325.948 189.771C336.32 201.189 351.785 218.235 366.289 227.594L368.458 224.233ZM388.221 228.401C387.611 226.496 387.611 226.496 387.612 226.496C387.612 226.496 387.613 226.495 387.613 226.495C387.613 226.495 387.614 226.495 387.614 226.495C387.614 226.495 387.614 226.495 387.613 226.495C387.612 226.496 387.607 226.497 387.6 226.499C387.586 226.504 387.561 226.511 387.527 226.521C387.457 226.542 387.347 226.573 387.2 226.612C386.906 226.691 386.465 226.799 385.902 226.913C384.773 227.142 383.168 227.388 381.286 227.456C377.502 227.591 372.743 226.998 368.458 224.233L366.289 227.594C371.498 230.955 377.163 231.606 381.429 231.453C383.572 231.376 385.399 231.096 386.696 230.834C387.345 230.702 387.865 230.575 388.229 230.478C388.411 230.429 388.555 230.388 388.656 230.359C388.707 230.344 388.747 230.331 388.776 230.322C388.791 230.318 388.803 230.314 388.812 230.311C388.817 230.31 388.821 230.309 388.824 230.308C388.826 230.307 388.827 230.307 388.828 230.306C388.829 230.306 388.83 230.306 388.83 230.306C388.831 230.305 388.832 230.305 388.221 228.401ZM405.517 208.276L386.807 226.986L389.635 229.815L408.346 211.104L405.517 208.276ZM408.346 211.104L408.432 211.018L405.603 208.19L405.517 208.276L408.346 211.104ZM408.432 211.018L427.142 192.308L424.314 189.479L405.603 208.19L408.432 211.018ZM425.728 190.894C427.633 191.504 427.633 191.503 427.633 191.503C427.633 191.502 427.633 191.502 427.634 191.501C427.634 191.5 427.634 191.498 427.635 191.497C427.636 191.493 427.637 191.489 427.639 191.485C427.642 191.476 427.645 191.464 427.65 191.449C427.659 191.42 427.671 191.379 427.686 191.329C427.716 191.227 427.757 191.084 427.805 190.902C427.902 190.538 428.03 190.018 428.161 189.368C428.424 188.071 428.704 186.245 428.781 184.102C428.933 179.835 428.283 174.171 424.921 168.962L421.56 171.131C424.326 175.416 424.919 180.175 424.783 183.959C424.716 185.841 424.469 187.446 424.241 188.575C424.127 189.138 424.018 189.579 423.94 189.873C423.901 190.02 423.869 190.13 423.849 190.199C423.839 190.234 423.831 190.259 423.827 190.273C423.825 190.28 423.823 190.284 423.823 190.286C423.822 190.287 423.822 190.287 423.822 190.287C423.822 190.286 423.823 190.286 423.823 190.285C423.823 190.285 423.823 190.285 423.823 190.284C423.823 190.284 423.823 190.283 425.728 190.894ZM424.921 168.962C415.562 154.458 398.516 138.993 387.099 128.621L384.409 131.582C395.946 142.062 412.544 157.158 421.56 171.131L424.921 168.962ZM387.099 128.621C384.823 126.554 382.772 124.69 381.032 123.064L378.301 125.987C380.066 127.636 382.14 129.52 384.409 131.582L387.099 128.621ZM381.032 123.064C373.783 116.291 367.941 110.333 362.46 104.743L359.604 107.543C365.084 113.132 370.981 119.147 378.301 125.987L381.032 123.064ZM362.46 104.743C351.705 93.7746 342.355 84.2365 326.741 73.0459L324.411 76.2971C339.722 87.2706 348.866 96.5928 359.604 107.543L362.46 104.743ZM326.741 73.0459C317.644 66.5269 309.567 62.6807 301.753 58.9563L300.032 62.5671C307.844 66.2906 315.632 70.0058 324.411 76.2971L326.741 73.0459ZM301.753 58.9563C293.045 54.806 284.661 50.8049 275.208 43.384L272.738 46.5304C282.572 54.2506 291.316 58.4129 300.032 62.5671L301.753 58.9563ZM275.208 43.384C271.347 40.3535 266.621 36.1532 262.836 32.6865C260.949 30.9579 259.305 29.4207 258.134 28.3159C257.548 27.7636 257.081 27.3196 256.761 27.0141C256.6 26.8613 256.477 26.7432 256.394 26.6635C256.352 26.6237 256.321 26.5935 256.3 26.5733C256.289 26.5632 256.281 26.5556 256.276 26.5507C256.273 26.5482 256.271 26.5463 256.27 26.5451C256.27 26.5445 256.269 26.5441 256.269 26.5438C256.269 26.5437 256.269 26.5436 256.269 26.5435C256.268 26.5435 256.269 26.5435 254.882 27.9851C253.496 29.4267 253.496 29.4268 253.496 29.4269C253.496 29.427 253.496 29.4272 253.497 29.4274C253.497 29.4277 253.498 29.4283 253.498 29.429C253.5 29.4304 253.502 29.4325 253.505 29.4353C253.511 29.4407 253.519 29.4488 253.53 29.4593C253.552 29.4804 253.584 29.5117 253.627 29.5525C253.712 29.6342 253.838 29.7544 254.001 29.9094C254.326 30.2192 254.798 30.6681 255.389 31.2257C256.571 32.3407 258.229 33.8916 260.134 35.6361C263.933 39.1156 268.752 43.4013 272.738 46.5304L275.208 43.384ZM253.468 26.5709L238.726 41.3128L241.555 44.1412L256.296 29.3993L253.468 26.5709ZM238.726 41.3128L238.64 41.3987L241.469 44.2271L241.555 44.1412L238.726 41.3128ZM226.727 58.969L241.469 44.2271L238.64 41.3987L223.898 56.1406L226.727 58.969Z" fill="#D8DEE9"/>
<path fill-rule="evenodd" clip-rule="evenodd" d="M305.196 162.555C310.83 167.988 316.859 173.803 323.737 181.162C325.536 183.087 327.619 185.405 329.925 187.971C339.933 199.107 354.144 214.92 367.575 223.591C376.773 229.53 387.351 226.442 387.351 226.442L405.56 208.233L275.452 78.1258L257.161 96.4167C257.6 98.0995 264.37 113.956 275.295 129.194C285.804 143.851 294.831 152.557 305.196 162.555Z" fill="white"/>
<path fill-rule="evenodd" clip-rule="evenodd" d="M359.881 107.87C365.314 113.504 371.129 119.533 378.488 126.41C380.413 128.209 382.731 130.292 385.297 132.599C396.433 142.606 412.246 156.817 420.918 170.248C426.856 179.447 423.768 190.025 423.768 190.025L405.56 208.233L275.452 78.1257L293.743 59.8347C295.426 60.2733 311.283 67.0438 326.521 77.9688C341.178 88.4772 349.884 97.5043 359.881 107.87Z" fill="white"/>
<ellipse cx="275.452" cy="78.1258" rx="26" ry="4" transform="rotate(-45 275.452 78.1258)" fill="#F6FAFF"/>
<path d="M217.469 59.7409C215.126 57.3978 215.126 53.5988 217.469 51.2557L248.582 20.143C250.925 17.7998 254.724 17.7998 257.067 20.143L259.896 22.9714C260.677 23.7524 260.677 25.0188 259.896 25.7998L223.126 62.5694C222.345 63.3504 221.079 63.3504 220.298 62.5694L217.469 59.7409Z" fill="#81A1C1"/>
<path d="M225.247 60.4481L257.774 27.9212L262.017 32.1638C262.017 32.1638 255.646 35.7057 252.471 38.8814C244.325 47.0271 239.936 58.2984 230.904 66.105L225.247 60.4481Z" fill="#81A1C1" fill-opacity="0.38"/>
<path d="M316.536 130.003L335.628 138.654L326.964 119.575L331.029 115.511L349.126 133.608L345.994 136.74L340.028 130.774L332.359 122.484L340.96 141.774L338.71 144.024L319.444 135.423L327.722 143.079L333.689 149.046L330.556 152.178L312.459 134.08L316.536 130.003Z" fill="#2E3440" fill-opacity="0.87"/>
</svg>
