<svg width="333" height="332" viewBox="0 0 333 332" fill="none" xmlns="http://www.w3.org/2000/svg">
<rect width="333" height="332" fill="white"/>
<mask id="mask0_3251_34" style="mask-type:alpha" maskUnits="userSpaceOnUse" x="78" y="48" width="177" height="236">
<path d="M78 48H255V284H78V48Z" fill="white"/>
</mask>
<g mask="url(#mask0_3251_34)">
<path fill-rule="evenodd" clip-rule="evenodd" d="M82.3597 248.999H186.076V130.981H82.3597V248.999Z" fill="#D8DEE9"/>
<path fill-rule="evenodd" clip-rule="evenodd" d="M250.044 114.582L231.711 74.6617V61.8303C231.711 54.2046 225.442 48 217.737 48H115.263C107.558 48 101.289 54.2046 101.289 61.8303V74.6617L82.956 114.582C78.6161 124.03 78 128.04 78 137.897V270.207C78 277.832 84.2689 284.037 91.9737 284.037H241.026C248.731 284.037 255 277.832 255 270.207V137.897C255 128.04 254.384 124.03 250.044 114.582ZM115.263 57.2202H204.561C204.044 58.6635 203.763 60.2143 203.763 61.8303V71.0505H110.605V61.8303C110.605 59.2874 112.694 57.2202 115.263 57.2202ZM87.3158 270.207V137.897C87.3158 128.746 87.8542 126.196 91.4377 118.397L108.946 80.2707H201.187L185.43 114.582C181.09 124.03 180.474 128.04 180.474 137.897V270.207C180.474 271.823 180.755 273.373 181.272 274.817H91.9737C89.4044 274.817 87.3158 272.75 87.3158 270.207ZM245.684 270.207C245.684 272.75 243.596 274.817 241.026 274.817H194.447C191.878 274.817 189.789 272.75 189.789 270.207V137.897C189.789 128.746 190.328 126.196 193.911 118.397L212.618 77.6607C212.894 77.094 213.057 76.4627 213.076 75.7952C213.076 75.7903 213.076 75.7878 213.076 75.7829C213.079 75.7423 213.079 75.7011 213.079 75.6606V61.8303C213.336 55.7124 222.14 55.7173 222.395 61.8303V75.6606C222.395 76.3183 222.538 76.9692 222.812 77.5673L241.562 118.397C245.146 126.196 245.684 128.746 245.684 137.897V270.207Z" fill="#5E81AC"/>
</g>
<path fill-rule="evenodd" clip-rule="evenodd" d="M148.209 141.362C146.693 140.559 144.856 140.648 143.427 141.592L132.037 149.105L120.647 141.59C119.218 140.648 117.382 140.559 115.866 141.362C114.352 142.163 113.406 143.726 113.406 145.426V163.867C113.653 169.982 122.476 169.98 122.722 163.867V154.042L129.454 158.483C131.018 159.516 133.056 159.516 134.621 158.483L141.353 154.042V163.867C141.6 169.982 150.424 169.98 150.669 163.867V145.426C150.669 143.726 149.723 142.163 148.209 141.362Z" fill="#434C5E"/>
<path d="M163.862 187.071H100.825C98.3382 187.071 96.3223 189.067 96.3223 191.528C96.3223 193.989 98.3382 195.984 100.825 195.984H163.862C166.349 195.984 168.364 193.989 168.364 191.528C168.364 189.067 166.349 187.071 163.862 187.071Z" fill="#434C5E"/>
<path d="M163.862 208.584H100.825C98.3382 208.584 96.3223 210.579 96.3223 213.04C96.3223 215.502 98.3382 217.497 100.825 217.497H163.862C166.349 217.497 168.364 215.502 168.364 213.04C168.364 210.579 166.349 208.584 163.862 208.584Z" fill="#434C5E"/>
<path d="M163.862 230.099H100.825C98.3382 230.099 96.3223 232.094 96.3223 234.556C96.3223 237.017 98.3382 239.012 100.825 239.012H163.862C166.349 239.012 168.364 237.017 168.364 234.556C168.364 232.094 166.349 230.099 163.862 230.099Z" fill="#434C5E"/>
</svg>
