<?xml version="1.0" encoding="UTF-8"?>
<svg width="286px" height="384px" viewBox="0 0 286 384" version="1.1" xmlns="http://www.w3.org/2000/svg" xmlns:xlink="http://www.w3.org/1999/xlink">
    <title>milk-carton备份 7</title>
    <defs>
        <polygon id="path-1" points="0 0 285 0 285 383.94 0 383.94"></polygon>
    </defs>
    <g id="milk-carton备份-7" stroke="none" stroke-width="1" fill="none" fill-rule="evenodd">
        <g id="编组" transform="translate(0.500000, 0.000000)">
            <mask id="mask-2" fill="white">
                <use xlink:href="#path-1"></use>
            </mask>
            <g id="Clip-2"></g>
            <polygon id="Fill-1" fill="#D8DEE9" mask="url(#mask-2)" points="7 327 174 327 174 135 7 135"></polygon>
            <path d="M277.02,108.32 L247.5,43.375 L247.5,22.5 C247.5,10.094 237.406,0 225,0 L60,0 C47.594,0 37.5,10.094 37.5,22.5 L37.5,43.375 L7.98,108.32 C0.992,123.691 0,130.215 0,146.25 L0,361.5 C0,373.906 10.094,384 22.5,384 L262.5,384 C274.906,384 285,373.906 285,361.5 L285,146.25 C285,130.215 284.008,123.691 277.02,108.32 Z M60,15 L203.785,15 C202.953,17.348 202.5,19.871 202.5,22.5 L202.5,37.5 L52.5,37.5 L52.5,22.5 C52.5,18.363 55.863,15 60,15 Z M15,361.5 L15,146.25 C15,131.363 15.867,127.215 21.637,114.527 L49.828,52.5 L198.352,52.5 L172.98,108.32 C165.992,123.691 165,130.215 165,146.25 L165,361.5 C165,364.129 165.453,366.652 166.285,369 L22.5,369 C18.363,369 15,365.637 15,361.5 Z M270,361.5 C270,365.637 266.637,369 262.5,369 L187.5,369 C183.363,369 180,365.637 180,361.5 L180,146.25 C180,131.363 180.867,127.215 186.637,114.527 L216.758,48.254 C217.203,47.332 217.465,46.305 217.496,45.219 C217.496,45.211 217.496,45.207 217.496,45.199 C217.5,45.133 217.5,45.066 217.5,45 L217.5,22.5 C217.914,12.547 232.09,12.555 232.5,22.5 L232.5,45 C232.5,46.07 232.73,47.129 233.172,48.102 L263.363,114.527 C269.133,127.215 270,131.363 270,146.25 L270,361.5 Z" id="Fill-3" fill="#5E81AC" mask="url(#mask-2)"></path>
        </g>
        <g id="编组-2" transform="translate(30.000000, 151.000000)" fill="#434C5E">
            <path d="M83.539,0.886795643 C81.098,-0.418204357 78.141,-0.273204357 75.84,1.26179564 L57.5,13.4837956 L39.16,1.25779564 C36.859,-0.273204357 33.902,-0.418204357 31.461,0.886795643 C29.023,2.19079564 27.5,4.73379564 27.5,7.49979564 L27.5,37.4997956 C27.898,47.4487956 42.105,47.4447956 42.5,37.4997956 L42.5,21.5157956 L53.34,28.7417956 C55.859,30.4217956 59.141,30.4217956 61.66,28.7417956 L72.5,21.5157956 L72.5,37.4997956 C72.898,47.4487956 87.105,47.4447956 87.5,37.4997956 L87.5,7.49979564 C87.5,4.73379564 85.977,2.19079564 83.539,0.886795643 Z" id="Fill-4"></path>
            <rect id="矩形" x="0" y="75.2497956" width="116" height="14.5" rx="7.25"></rect>
            <rect id="矩形备份" x="0" y="110.249796" width="116" height="14.5" rx="7.25"></rect>
            <rect id="矩形备份-2" x="0" y="145.249796" width="116" height="14.5" rx="7.25"></rect>
        </g>
    </g>
</svg>