<svg width="470" height="326" viewBox="0 0 470 326" fill="none" xmlns="http://www.w3.org/2000/svg">
<path d="M333.149 26C298.628 26.0001 278.772 55 247.842 73.5C218.697 90.9322 176.421 73.9837 146.571 88.5C118.696 102.056 110.691 122.789 85.7079 139.5C61.5692 155.647 47.75 147.209 29.3351 167.528C9.24502 189.696 -3.83174 201.039 1.00986 228.037C5.2513 251.689 7.11717 277.084 33.5879 288.612C88.0137 312.315 105.715 294.62 162.065 300.903C224.712 307.887 303.273 345.942 362.735 312.315C393.134 295.124 377.325 264.664 404.202 244.132C418.85 232.941 434.655 233.84 447.89 221.599C468.034 202.968 472.766 191.5 468.624 161.023C462.642 117 457.527 105.19 413.468 61.8804C381.359 30.3171 382.039 25.9999 333.149 26Z" fill="#81A1C1" fill-opacity="0.12"/>
<rect width="5.99998" height="153" rx="2.99999" transform="matrix(-4.37114e-08 1 1 1.23925e-07 97 159)" fill="#4C566A"/>
<rect width="5.99999" height="48" rx="3" transform="matrix(-4.37114e-08 1 1 1.23925e-07 73 177)" fill="#C58974"/>
<rect width="5.99999" height="48" rx="3" transform="matrix(-4.37114e-08 1 1 1.23925e-07 183 195)" fill="#ECEFF3"/>
<rect width="5.99999" height="48" rx="3" transform="matrix(-4.37114e-08 1 1 1.23925e-07 97 213)" fill="#D9DEE8"/>
<rect width="5.99999" height="48" rx="3" transform="matrix(-4.37114e-08 1 1 1.23925e-07 97 231)" fill="#86A0BE"/>
<rect width="5.99999" height="48" rx="3" transform="matrix(-4.37114e-08 1 1 1.23925e-07 167 249)" fill="#93BECE"/>
<rect width="5.99999" height="48" rx="3" transform="matrix(-4.37114e-08 1 1 1.23925e-07 155 231)" fill="#D9DEE8"/>
<rect width="5.99999" height="48" rx="3" transform="matrix(-4.37114e-08 1 1 1.23925e-07 213 231)" fill="#A8BC91"/>
<rect width="5.99999" height="48" rx="3" transform="matrix(-4.37114e-08 1 1 1.23925e-07 201 213)" fill="#D9DEE8"/>
<rect width="5.99999" height="36" rx="3" transform="matrix(-4.37114e-08 1 1 1.23925e-07 155 213)" fill="#93BECE"/>
<rect width="5.99999" height="36" rx="3" transform="matrix(-4.37114e-08 1 1 1.23925e-07 121 249)" fill="#86A0BE"/>
<rect width="5.99999" height="36" rx="3" transform="matrix(-4.37114e-08 1 1 1.23925e-07 271 231)" fill="#A8BC91"/>
<rect width="5.99999" height="36" rx="3" transform="matrix(-4.37114e-08 1 1 1.23925e-07 259 213)" fill="#81A1C1"/>
<rect width="5.99999" height="48" rx="3" transform="matrix(-4.37114e-08 1 1 1.23925e-07 241 177)" fill="#D9DEE8"/>
<rect width="5.99999" height="100" rx="2.99999" transform="matrix(-4.37114e-08 1 1 1.23925e-07 131 177)" fill="#ECEFF3"/>
<rect width="5.99999" height="100" rx="2.99999" transform="matrix(-4.37114e-08 1 1 1.23925e-07 73 195)" fill="#86A0BE"/>
<rect width="5.99999" height="120" rx="2.99999" transform="matrix(-4.37114e-08 1 1 1.23925e-07 73 267)" fill="#98BBBA"/>
<rect width="5.99999" height="90" rx="2.99999" transform="matrix(-4.37114e-08 1 1 1.23925e-07 203 267)" fill="#81A1C1"/>
<path d="M200.786 41.0192C190.775 51.0302 186.062 63.7434 182.557 73.0972C178.592 83.6793 175.868 89.4366 169.073 82.6417C163.807 77.3758 157.407 62.1617 178.743 40.8251C191.06 28.5083 196.787 25.7117 208.62 24.6292C220.453 23.5467 228.846 26.5572 229.482 31.2309C230.355 37.6495 222.123 19.6826 200.786 41.0192Z" fill="white"/>
<path d="M204.241 84.3813C204.241 89.1005 206.127 93.2079 207.506 96.2387C209.065 99.6676 209.78 101.667 206.577 101.667C204.095 101.667 199 99.5893 199 89.5311C199 83.7249 199.691 81.716 202.225 78.6717C204.759 75.6274 207.446 74.3588 208.698 75.3105C210.417 76.6175 204.241 74.3231 204.241 84.3813Z" fill="white"/>
<path d="M222.46 63.0076C227.179 71.1815 234.552 76.41 239.971 80.2809C246.101 84.6602 249.338 87.408 243.79 90.6111C239.491 93.0935 228.589 94.5899 218.531 77.1686C212.725 67.112 211.912 62.9419 213.257 55.135C214.602 47.3281 217.988 42.443 221.108 42.8399C225.392 43.385 212.401 45.5863 222.46 63.0076Z" fill="white"/>
<path fill-rule="evenodd" clip-rule="evenodd" d="M236.312 51.5548C236.312 51.5548 247.125 62.7987 253.285 70.6452C260.855 80.2891 264.937 88.853 269.089 97.565C272.813 105.378 276.594 113.311 282.999 122.248C294.081 137.711 303.511 146.958 314.471 157.704C320.06 163.185 326.047 169.055 332.853 176.339C334.491 178.091 336.365 180.154 338.429 182.427C348.855 193.904 364.135 210.726 378.374 219.914C387.868 226.04 399.221 222.401 399.221 222.401L417.932 203.69L418.018 203.604L436.728 184.894C436.728 184.894 440.367 173.54 434.241 164.046C425.053 149.808 408.231 134.527 396.754 124.101C394.482 122.037 392.419 120.163 390.666 118.526C383.382 111.719 377.512 105.732 372.032 100.143C361.286 89.1837 352.039 79.7535 336.576 68.6715C327.638 62.2664 319.706 58.4857 311.892 54.7617C303.18 50.6095 294.616 46.5278 284.973 38.9572C277.126 32.7976 265.882 21.9851 265.882 21.9851L251.14 36.727L251.054 36.8129L236.312 51.5548Z" fill="#ECEFF4"/>
<path d="M253.285 70.6452L254.858 69.4102L253.285 70.6452ZM236.312 51.5548L234.898 50.1406C234.128 50.9109 234.116 52.1559 234.871 52.9411L236.312 51.5548ZM269.089 97.565L270.895 96.7045L269.089 97.565ZM282.999 122.248L284.625 121.083L282.999 122.248ZM314.471 157.704L313.07 159.132L314.471 157.704ZM332.853 176.339L331.392 177.704L332.853 176.339ZM338.429 182.427L336.948 183.771L338.429 182.427ZM378.374 219.914L377.289 221.594L378.374 219.914ZM399.221 222.401L399.832 224.305C400.135 224.208 400.41 224.04 400.635 223.815L399.221 222.401ZM436.728 184.894L438.142 186.308C438.367 186.083 438.535 185.807 438.633 185.504L436.728 184.894ZM434.241 164.046L435.921 162.962L434.241 164.046ZM396.754 124.101L398.099 122.621L396.754 124.101ZM390.666 118.526L392.032 117.064L390.666 118.526ZM372.032 100.143L370.604 101.543L372.032 100.143ZM336.576 68.6715L335.411 70.2971L336.576 68.6715ZM311.892 54.7617L312.753 52.9563L311.892 54.7617ZM284.973 38.9572L283.738 40.5304L283.738 40.5304L284.973 38.9572ZM265.882 21.9851L267.269 20.5435C266.483 19.7884 265.238 19.8006 264.468 20.5709L265.882 21.9851ZM254.858 69.4102C251.729 65.4242 247.443 60.6054 243.964 56.8067C242.219 54.902 240.668 53.244 239.553 52.0619C238.995 51.4708 238.547 50.9984 238.237 50.6733C238.082 50.5108 237.962 50.385 237.88 50.2997C237.839 50.2571 237.808 50.2245 237.787 50.2025C237.776 50.1915 237.768 50.1831 237.763 50.1774C237.76 50.1746 237.758 50.1724 237.756 50.1709C237.756 50.1702 237.755 50.1696 237.755 50.1692C237.755 50.169 237.754 50.1688 237.754 50.1687C237.754 50.1686 237.754 50.1685 236.312 51.5548C234.871 52.9411 234.871 52.9411 234.871 52.9411C234.871 52.9412 234.871 52.9413 234.871 52.9414C234.871 52.9417 234.872 52.9422 234.873 52.9428C234.874 52.944 234.876 52.946 234.878 52.9486C234.883 52.9537 234.891 52.9616 234.901 52.9721C234.921 52.9931 234.951 53.0247 234.991 53.0663C235.071 53.1495 235.189 53.273 235.341 53.4332C235.647 53.7537 236.091 54.221 236.643 54.8066C237.748 55.9779 239.285 57.6213 241.014 59.5084C244.481 63.2933 248.681 68.0196 251.711 71.8801L254.858 69.4102ZM270.895 96.7045C266.74 87.9884 262.578 79.2449 254.858 69.4102L251.711 71.8801C259.132 81.3334 263.133 89.7177 267.284 98.4255L270.895 96.7045ZM284.625 121.083C278.333 112.305 274.618 104.517 270.895 96.7045L267.284 98.4255C271.008 106.24 274.854 114.317 281.373 123.413L284.625 121.083ZM315.871 156.276C304.92 145.539 295.598 136.395 284.625 121.083L281.373 123.413C292.564 139.028 302.102 148.378 313.07 159.132L315.871 156.276ZM334.314 174.973C327.475 167.654 321.459 161.756 315.871 156.276L313.07 159.132C318.66 164.613 324.618 170.456 331.392 177.704L334.314 174.973ZM339.909 181.082C337.848 178.813 335.964 176.738 334.314 174.973L331.392 177.704C333.018 179.444 334.881 181.496 336.948 183.771L339.909 181.082ZM379.458 218.233C365.486 209.217 350.389 192.619 339.909 181.082L336.948 183.771C347.32 195.189 362.785 212.235 377.289 221.594L379.458 218.233ZM399.221 222.401C398.611 220.496 398.611 220.496 398.612 220.496C398.612 220.496 398.613 220.495 398.613 220.495C398.613 220.495 398.614 220.495 398.614 220.495C398.614 220.495 398.614 220.495 398.613 220.495C398.612 220.496 398.607 220.497 398.6 220.499C398.586 220.504 398.561 220.511 398.527 220.521C398.457 220.542 398.347 220.573 398.2 220.612C397.906 220.691 397.465 220.799 396.902 220.913C395.773 221.142 394.168 221.388 392.286 221.456C388.502 221.591 383.743 220.998 379.458 218.233L377.289 221.594C382.498 224.955 388.163 225.606 392.429 225.453C394.572 225.376 396.399 225.096 397.696 224.834C398.345 224.702 398.865 224.575 399.229 224.478C399.411 224.429 399.555 224.388 399.656 224.359C399.707 224.344 399.747 224.331 399.776 224.322C399.791 224.318 399.803 224.314 399.812 224.311C399.817 224.31 399.821 224.309 399.824 224.308C399.826 224.307 399.827 224.307 399.828 224.306C399.829 224.306 399.83 224.306 399.83 224.306C399.831 224.305 399.832 224.305 399.221 222.401ZM416.517 202.276L397.807 220.986L400.635 223.815L419.346 205.104L416.517 202.276ZM419.346 205.104L419.432 205.018L416.603 202.19L416.517 202.276L419.346 205.104ZM419.432 205.018L438.142 186.308L435.314 183.479L416.603 202.19L419.432 205.018ZM436.728 184.894C438.633 185.504 438.633 185.503 438.633 185.503C438.633 185.502 438.633 185.502 438.634 185.501C438.634 185.5 438.634 185.498 438.635 185.497C438.636 185.493 438.637 185.489 438.639 185.485C438.642 185.476 438.645 185.464 438.65 185.449C438.659 185.42 438.671 185.379 438.686 185.329C438.716 185.227 438.757 185.084 438.805 184.902C438.902 184.538 439.03 184.018 439.161 183.368C439.424 182.071 439.704 180.245 439.781 178.102C439.933 173.835 439.283 168.171 435.921 162.962L432.56 165.131C435.326 169.416 435.919 174.175 435.783 177.959C435.716 179.841 435.469 181.446 435.241 182.575C435.127 183.138 435.018 183.579 434.94 183.873C434.901 184.02 434.869 184.13 434.849 184.199C434.839 184.234 434.831 184.259 434.827 184.273C434.825 184.28 434.823 184.284 434.823 184.286C434.822 184.287 434.822 184.287 434.822 184.287C434.822 184.286 434.823 184.286 434.823 184.285C434.823 184.285 434.823 184.285 434.823 184.284C434.823 184.284 434.823 184.283 436.728 184.894ZM435.921 162.962C426.562 148.458 409.516 132.993 398.099 122.621L395.409 125.582C406.946 136.062 423.544 151.158 432.56 165.131L435.921 162.962ZM398.099 122.621C395.823 120.554 393.772 118.69 392.032 117.064L389.301 119.987C391.066 121.636 393.14 123.52 395.409 125.582L398.099 122.621ZM392.032 117.064C384.783 110.291 378.941 104.333 373.46 98.743L370.604 101.543C376.084 107.132 381.981 113.147 389.301 119.987L392.032 117.064ZM373.46 98.743C362.705 87.7746 353.355 78.2365 337.741 67.0459L335.411 70.2971C350.722 81.2706 359.866 90.5928 370.604 101.543L373.46 98.743ZM337.741 67.0459C328.644 60.5269 320.567 56.6807 312.753 52.9563L311.032 56.5671C318.844 60.2906 326.632 64.0058 335.411 70.2971L337.741 67.0459ZM312.753 52.9563C304.045 48.806 295.661 44.8049 286.208 37.384L283.738 40.5304C293.572 48.2506 302.316 52.4129 311.032 56.5671L312.753 52.9563ZM286.208 37.384C282.347 34.3535 277.621 30.1532 273.836 26.6865C271.949 24.9579 270.305 23.4207 269.134 22.3159C268.548 21.7636 268.081 21.3196 267.761 21.0141C267.6 20.8613 267.477 20.7432 267.394 20.6635C267.352 20.6237 267.321 20.5935 267.3 20.5733C267.289 20.5632 267.281 20.5556 267.276 20.5507C267.273 20.5482 267.271 20.5463 267.27 20.5451C267.27 20.5445 267.269 20.5441 267.269 20.5438C267.269 20.5437 267.269 20.5436 267.269 20.5435C267.268 20.5435 267.269 20.5435 265.882 21.9851C264.496 23.4267 264.496 23.4268 264.496 23.4269C264.496 23.427 264.496 23.4272 264.497 23.4274C264.497 23.4277 264.498 23.4283 264.498 23.429C264.5 23.4304 264.502 23.4325 264.505 23.4353C264.511 23.4407 264.519 23.4488 264.53 23.4593C264.552 23.4804 264.584 23.5117 264.627 23.5525C264.712 23.6342 264.838 23.7544 265.001 23.9094C265.326 24.2192 265.798 24.6681 266.389 25.2257C267.571 26.3407 269.229 27.8916 271.134 29.6361C274.933 33.1156 279.752 37.4013 283.738 40.5304L286.208 37.384ZM264.468 20.5709L249.726 35.3128L252.555 38.1412L267.296 23.3993L264.468 20.5709ZM249.726 35.3128L249.64 35.3987L252.469 38.2271L252.555 38.1412L249.726 35.3128ZM237.727 52.969L252.469 38.2271L249.64 35.3987L234.898 50.1406L237.727 52.969Z" fill="#D8DEE9"/>
<path fill-rule="evenodd" clip-rule="evenodd" d="M316.196 156.554C321.83 161.988 327.859 167.803 334.737 175.162C336.536 177.087 338.619 179.405 340.925 181.971C350.933 193.107 365.144 208.92 378.575 217.591C387.773 223.53 398.351 220.442 398.351 220.442L416.56 202.233L286.452 72.1256L268.161 90.4166C268.6 92.0994 275.37 107.956 286.295 123.194C296.804 137.851 305.831 146.557 316.196 156.554Z" fill="white"/>
<path fill-rule="evenodd" clip-rule="evenodd" d="M370.881 101.87C376.314 107.504 382.129 113.533 389.488 120.41C391.413 122.209 393.731 124.292 396.297 126.599C407.433 136.606 423.246 150.817 431.918 164.248C437.856 173.447 434.768 184.025 434.768 184.025L416.56 202.233L286.452 72.1257L304.743 53.8347C306.426 54.2733 322.283 61.0438 337.521 71.9688C352.178 82.4772 360.884 91.5043 370.881 101.87Z" fill="white"/>
<ellipse cx="286.452" cy="72.1258" rx="26" ry="4" transform="rotate(-45 286.452 72.1258)" fill="#F6FAFF"/>
<path d="M228.469 53.7409C226.126 51.3978 226.126 47.5988 228.469 45.2557L259.582 14.143C261.925 11.7998 265.724 11.7998 268.067 14.143L270.896 16.9714C271.677 17.7524 271.677 19.0188 270.896 19.7998L234.126 56.5694C233.345 57.3504 232.079 57.3504 231.298 56.5694L228.469 53.7409Z" fill="#81A1C1"/>
<path d="M236.247 54.4481L268.774 21.9212L273.017 26.1638C273.017 26.1638 266.646 29.7057 263.471 32.8814C255.325 41.0271 250.936 52.2984 241.904 60.105L236.247 54.4481Z" fill="#81A1C1" fill-opacity="0.38"/>
<path d="M327.536 124.003L346.628 132.654L337.964 113.575L342.029 109.511L360.126 127.608L356.994 130.74L351.028 124.774L343.359 116.484L351.96 135.774L349.71 138.024L330.444 129.423L338.722 137.079L344.689 143.046L341.556 146.178L323.459 128.08L327.536 124.003Z" fill="#2E3440" fill-opacity="0.87"/>
</svg>
